<?xml version="1.0" encoding="utf-8"?>
<!-- Generator: Adobe Illustrator 16.0.2, SVG Export Plug-In . SVG Version: 6.00 Build 0)  -->
<!DOCTYPE svg PUBLIC "-//W3C//DTD SVG 1.1//EN" "http://www.w3.org/Graphics/SVG/1.1/DTD/svg11.dtd">
<svg version="1.1" id="圖層_1" xmlns="http://www.w3.org/2000/svg" xmlns:xlink="http://www.w3.org/1999/xlink" x="0px" y="0px"
	 width="182px" height="36px" viewBox="0 0 182 36" enable-background="new 0 0 182 36" xml:space="preserve">
<g>
	<g>
		<defs>
			<path id="SVGID_1_" d="M13.244,31.662L5.59,18.398c-0.172-0.299-0.172-1.091,0-1.39l7.653-13.263
				c0.172-0.299,0.857-0.693,1.201-0.693h15.307c0.344,0,1.029,0.395,1.201,0.693l7.654,13.263c0.172,0.299,0.172,1.091,0,1.39
				l-7.654,13.264c-0.172,0.298-0.857,0.693-1.201,0.693H14.445C14.101,32.355,13.416,31.96,13.244,31.662 M13.96-0.445
				c-1.283,0-2.858,0.91-3.501,2.022L2.321,15.682c-0.642,1.112-0.642,2.932,0,4.044l8.138,14.104
				c0.643,1.112,2.218,2.022,3.501,2.022h16.276c1.284,0,2.858-0.91,3.5-2.022l8.138-14.104c0.642-1.112,0.642-2.932,0-4.044
				L33.737,1.577c-0.642-1.113-2.217-2.022-3.5-2.022H13.96z"/>
		</defs>
		<clipPath id="SVGID_2_">
			<use xlink:href="#SVGID_1_"  overflow="visible"/>
		</clipPath>
		<rect x="1.135" y="-1.15" clip-path="url(#SVGID_2_)" fill="#3CB58E" width="41.926" height="37.708"/>
	</g>
	<rect x="10.004" y="17.939" fill="#3CB58E" width="12.094" height="2.569"/>
	<rect x="12.375" y="22.547" fill="#3CB58E" width="9.724" height="2.567"/>
	<rect x="14.747" y="27.153" fill="#3CB58E" width="7.352" height="2.567"/>
	<g>
		<defs>
			<path id="SVGID_3_" d="M55.835,16.721c-1.085,3.556-2.539,6.72-4.292,9.421c-0.231,0.347-0.162,0.646,0.208,0.854l0.715,0.393
				c0.347,0.185,0.624,0.14,0.854-0.185c2.101-3.095,3.624-6.305,4.708-9.768c0.115-0.37-0.023-0.647-0.393-0.764l-1.015-0.345
				c-0.099-0.035-0.19-0.053-0.274-0.053C56.098,16.275,55.921,16.426,55.835,16.721 M64.42,16.281l-0.739,0.392
				c-0.346,0.186-0.439,0.487-0.23,0.854c1.661,2.957,3.277,6.189,4.731,9.653c0.161,0.369,0.438,0.508,0.808,0.348l0.923-0.394
				c0.37-0.161,0.485-0.462,0.324-0.832c-1.362-3.163-3.047-6.419-4.985-9.767c-0.138-0.23-0.306-0.347-0.504-0.347
				C64.646,16.189,64.537,16.219,64.42,16.281 M60.22,7.807c-0.416,0-0.624,0.208-0.624,0.624v3.672h-8.054
				c-0.416,0-0.624,0.208-0.624,0.623v0.046c0,0.416,0.208,0.624,0.624,0.624h18.462c0.415,0,0.623-0.208,0.623-0.624v-0.046
				c0-0.415-0.208-0.623-0.623-0.623h-8.054V8.43c0-0.416-0.208-0.624-0.624-0.624H60.22z"/>
		</defs>
		<clipPath id="SVGID_4_">
			<use xlink:href="#SVGID_3_"  overflow="visible"/>
		</clipPath>
		<rect x="50.215" y="7.102" clip-path="url(#SVGID_4_)" fill="#3CB58E" width="21.118" height="21.196"/>
	</g>
	<g>
		<defs>
			<path id="SVGID_5_" d="M82.882,18.105h4.708v3.44h-4.938C82.79,20.461,82.859,19.353,82.882,18.105 M89.852,18.105h5.4v3.44h-5.4
				V18.105z M82.882,13.718h4.708v3.279h-4.708V13.718z M89.852,13.718h5.4v3.279h-5.4V13.718z M84.867,9.932h5.931
				c-0.946,1.084-1.777,1.939-2.516,2.609h-5.285C83.828,11.524,84.429,10.669,84.867,9.932 M83.782,7.552
				c-1.222,2.679-2.908,4.942-5.054,6.743c-0.3,0.254-0.346,0.508-0.185,0.854l0.231,0.462c0.184,0.393,0.507,0.462,0.854,0.186
				l0.969-0.785v1.87c0,4.757-0.553,7.506-1.962,9.813c-0.184,0.324-0.138,0.601,0.163,0.854l0.669,0.554
				c0.323,0.256,0.646,0.208,0.877-0.138c1.13-1.663,1.8-3.396,2.123-5.287h12.785v2.655c0,1.5-0.023,1.524-1.015,1.524
				c-0.231,0-1.063-0.07-2.54-0.115c-0.438-0.023-0.668,0.184-0.646,0.576c0,0.393,0.23,0.6,0.646,0.623
				c1.57,0.046,2.516,0.093,2.792,0.093c2.747,0,3.046-0.323,3.046-2.771V13.165c0-0.416-0.207-0.624-0.622-0.624H90.66
				c0.945-0.901,1.684-1.663,2.192-2.286c0.184-0.255,0.253-0.463,0.253-0.786V9.423c0-0.415-0.208-0.623-0.623-0.623h-6.97
				c0.139-0.277,0.231-0.508,0.325-0.693c0.184-0.393,0.021-0.693-0.417-0.785l-0.854-0.163c-0.067-0.012-0.13-0.018-0.191-0.018
				C84.108,7.141,83.914,7.269,83.782,7.552"/>
		</defs>
		<clipPath id="SVGID_6_">
			<use xlink:href="#SVGID_5_"  overflow="visible"/>
		</clipPath>
		<rect x="77.748" y="6.437" clip-path="url(#SVGID_6_)" fill="#3CB58E" width="20.494" height="22.534"/>
	</g>
	<g>
		<defs>
			<path id="SVGID_7_" d="M109.998,19.19c-0.415,0-0.623,0.162-0.623,0.44c0,0.413,0.208,0.623,0.623,0.623h10.478
				c-1.522,0.808-2.768,1.407-3.9,1.87h-0.646c-0.414,0-0.622,0.208-0.622,0.623v0.438h-8.954c-0.416,0-0.623,0.185-0.623,0.531
				c0,0.415,0.207,0.624,0.623,0.624h8.954v1.801c0,1.063,0.115,0.946-0.9,0.946c-0.461,0-1.432-0.068-2.932-0.114
				c-0.438-0.023-0.669,0.184-0.646,0.576s0.255,0.602,0.623,0.624c1.224,0.069,2.284,0.093,3.209,0.093
				c2.676,0,3.023-0.231,3.023-1.57v-2.355h8.284c0.415,0,0.623-0.185,0.623-0.532c0-0.415-0.208-0.623-0.623-0.623h-8.954
				c2.146-0.878,3.992-1.801,5.515-2.747c0.301-0.185,0.416-0.395,0.416-0.739c0-0.324-0.207-0.509-0.623-0.509H109.998z
				 M112.099,8.268c-1.777,0.347-3.322,0.624-4.639,0.763c-0.393,0.047-0.601,0.277-0.577,0.67l0.3,6.765h-0.715
				c-0.416,0-0.623,0.207-0.623,0.624v2.541c0,0.413,0.207,0.623,0.623,0.623h1.039c0.415,0,0.623-0.21,0.623-0.623v-2.104h16.063
				v2.104c0,0.413,0.206,0.623,0.622,0.623h1.039c0.415,0,0.622-0.21,0.622-0.623V17.09c0-0.417-0.207-0.624-0.622-0.624h-0.739
				l0.323-7.32c0.022-0.417-0.208-0.646-0.623-0.646h-4.777c-0.415,0-0.624,0.161-0.624,0.461c0,0.416,0.209,0.623,0.624,0.623
				h3.047l-0.069,1.616h-2.839c-0.415,0-0.624,0.092-0.624,0.277c0,0.417,0.209,0.624,0.624,0.624h2.793l-0.047,1.685h-2.746
				c-0.415,0-0.624,0.115-0.624,0.3c0,0.417,0.209,0.625,0.624,0.625h2.701l-0.047,1.754h-13.34l-0.068-1.754h2.723
				c0.416,0,0.623-0.115,0.623-0.301c0-0.416-0.207-0.624-0.623-0.624h-2.77l-0.069-1.685h2.839c0.416,0,0.623-0.093,0.623-0.278
				c0-0.415-0.207-0.624-0.623-0.624h-2.885l-0.046-1.247c1.016-0.162,2.077-0.323,3.115-0.531c0.415-0.069,0.577-0.324,0.509-0.693
				c-0.059-0.306-0.242-0.485-0.54-0.485C112.236,8.245,112.171,8.252,112.099,8.268 M113.876,11.687
				c1.062-0.416,1.915-0.832,2.562-1.224c0.577,0.392,1.038,0.738,1.454,1.016c-0.577,0.669-1.085,1.155-1.523,1.502
				C115.768,12.633,114.938,12.17,113.876,11.687 M117.568,7.784c-0.439,0.46-0.831,0.808-1.2,1.108
				c-0.554-0.324-1.27-0.693-2.216-1.108c-0.346-0.163-0.601-0.116-0.784,0.138c-0.254,0.346-0.185,0.646,0.207,0.854
				c0.438,0.209,0.993,0.532,1.662,0.925c-0.646,0.415-1.246,0.738-1.8,0.969c-0.439,0.185-0.509,0.531-0.161,0.854l0.275,0.256
				l-0.184,0.23c-0.277,0.347-0.185,0.647,0.207,0.854c0.438,0.209,0.993,0.531,1.662,0.923c-0.646,0.393-1.246,0.717-1.8,0.97
				c-0.439,0.186-0.531,0.485-0.231,0.762c0.254,0.231,0.508,0.301,0.854,0.163c0.946-0.37,1.754-0.785,2.377-1.156
				c0.346,0.255,0.877,0.624,1.569,1.132c0.347,0.253,0.646,0.23,0.899-0.092l0.07-0.093c0.253-0.346,0.23-0.624-0.116-0.877
				l-1.246-0.854c0.53-0.417,0.97-0.785,1.315-1.155c0.323-0.324,0.231-0.671-0.208-0.832l-0.022-0.022l0.277-0.347
				c0.276-0.323,0.23-0.623-0.116-0.877l-1.246-0.854c0.53-0.416,0.946-0.785,1.292-1.131c0.323-0.324,0.231-0.646-0.207-0.831
				l-0.277-0.116c-0.115-0.047-0.223-0.069-0.324-0.069C117.896,7.506,117.722,7.599,117.568,7.784"/>
		</defs>
		<clipPath id="SVGID_8_">
			<use xlink:href="#SVGID_7_"  overflow="visible"/>
		</clipPath>
		<rect x="105.025" y="6.802" clip-path="url(#SVGID_8_)" fill="#3CB58E" width="22.271" height="22.168"/>
	</g>
	<g>
		<defs>
			<path id="SVGID_9_" d="M141.846,17.875c-0.415,0-0.623,0.207-0.623,0.6c0,0.417,0.208,0.624,0.623,0.624h2.146
				c-0.093,4.318-1.27,6.258-4.662,7.621c-0.392,0.161-0.507,0.461-0.276,0.83l0.069,0.139c0.207,0.323,0.484,0.415,0.831,0.277
				c4.73-1.801,6.231-4.041,6.276-8.867h1.339v7.021c0,1.409,0.461,1.685,3.347,1.685c0.346,0,1.361-0.023,1.569-0.068
				c0.3-0.069,0.762-0.093,1.038-0.323c0.762-0.6,0.762-1.524,0.831-2.425c0.069-0.692,0.069-1.109,0.092-1.802
				c0-0.415-0.185-0.623-0.577-0.67l-0.899-0.093c-0.415-0.046-0.646,0.163-0.669,0.602c-0.047,1.662-0.139,2.679-0.23,2.934
				c-0.231,0.622-0.347,0.622-1.086,0.622c-1.293,0-1.13,0.023-1.13-1.039v-6.442h3.161c0.415,0,0.623-0.207,0.623-0.624
				c0-0.393-0.208-0.6-0.623-0.6H141.846z M144.247,13.649c-0.417,0-0.624,0.186-0.624,0.554c0,0.416,0.207,0.624,0.624,0.624h6.392
				c0.415,0,0.623-0.208,0.623-0.601c0-0.37-0.208-0.577-0.623-0.577H144.247z M134.553,8.568c-0.415,0-0.622,0.208-0.622,0.624
				v18.29c0,0.415,0.207,0.622,0.622,0.622h0.786c0.414,0,0.622-0.207,0.622-0.622V9.676h2.746c-0.554,1.94-1.361,3.787-2.1,5.473
				c-0.139,0.324-0.115,0.578,0.116,0.854c1.222,1.616,1.684,2.726,1.684,4.364c0,1.709-0.393,2.124-1.385,2.124h0.185
				c-0.438,0-0.646,0.232-0.576,0.602c0.069,0.37,0.276,0.554,0.622,0.554c2.309,0,3.231-0.992,3.231-2.933
				c0-1.823-0.394-3.071-2.077-5.126c0.438-1.108,0.991-2.216,2.216-5.333c0.115-0.301,0.16-0.508,0.16-0.786V9.192
				c0-0.416-0.207-0.624-0.622-0.624H134.553z M146.646,7.576c-0.416,0-0.624,0.208-0.624,0.623v1.94h-4.453
				c-0.416,0-0.624,0.208-0.624,0.624v3.094c0,0.417,0.208,0.625,0.624,0.625h0.992c0.415,0,0.623-0.208,0.623-0.625v-2.539h8.469
				v2.539c0,0.417,0.209,0.625,0.624,0.625h1.062c0.415,0,0.622-0.208,0.622-0.625v-3.094c0-0.416-0.207-0.624-0.622-0.624h-4.962
				v-1.94c0-0.415-0.208-0.623-0.623-0.623H146.646z"/>
		</defs>
		<clipPath id="SVGID_10_">
			<use xlink:href="#SVGID_9_"  overflow="visible"/>
		</clipPath>
		<rect x="133.226" y="6.871" clip-path="url(#SVGID_10_)" fill="#3CB58E" width="21.926" height="21.938"/>
	</g>
</g>
</svg>
